<?xml version="1.0" encoding="utf-8"?>
<svg version="1.1" xmlns:xlink="http://www.w3.org/1999/xlink" width="15px" height="15px" xmlns="http://www.w3.org/2000/svg">
  <g transform="matrix(1 0 0 1 -9 -143 )">
    <path d="M 12.36328125 7.9296875  C 12.48046875 7.8125  12.5390625 7.666015625  12.5390625 7.490234375  C 12.5390625 7.314453125  12.48046875 7.16796875  12.36328125 7.05078125  L 8.828125 3.515625  L 7.939453125 2.626953125  C 7.822265625 2.509765625  7.67578125 2.451171875  7.5 2.451171875  C 7.32421875 2.451171875  7.177734375 2.509765625  7.060546875 2.626953125  L 6.171875 3.515625  L 2.63671875 7.05078125  C 2.51953125 7.16796875  2.4609375 7.314453125  2.4609375 7.490234375  C 2.4609375 7.666015625  2.51953125 7.8125  2.63671875 7.9296875  L 3.525390625 8.818359375  C 3.642578125 8.935546875  3.7890625 8.994140625  3.96484375 8.994140625  C 4.140625 8.994140625  4.287109375 8.935546875  4.404296875 8.818359375  L 6.25 6.97265625  L 6.25 11.875  C 6.25 12.0442708333333  6.31184895833333 12.1907552083333  6.435546875 12.314453125  C 6.55924479166667 12.4381510416667  6.70572916666667 12.5  6.875 12.5  L 8.125 12.5  C 8.29427083333333 12.5  8.44075520833333 12.4381510416667  8.564453125 12.314453125  C 8.68815104166667 12.1907552083333  8.75 12.0442708333333  8.75 11.875  L 8.75 6.97265625  L 10.595703125 8.818359375  C 10.7194010416667 8.94205729166666  10.8658854166667 9.00390625  11.03515625 9.00390625  C 11.2044270833333 9.00390625  11.3509114583333 8.94205729166666  11.474609375 8.818359375  L 12.36328125 7.9296875  Z M 13.994140625 3.7353515625  C 14.6647135416667 4.88444010416667  15 6.13932291666666  15 7.5  C 15 8.86067708333333  14.6647135416667 10.1155598958333  13.994140625 11.2646484375  C 13.3235677083333 12.4137369791667  12.4137369791667 13.3235677083333  11.2646484375 13.994140625  C 10.1155598958333 14.6647135416667  8.86067708333333 15  7.5 15  C 6.13932291666667 15  4.88444010416667 14.6647135416667  3.7353515625 13.994140625  C 2.58626302083333 13.3235677083333  1.67643229166667 12.4137369791667  1.005859375 11.2646484375  C 0.335286458333333 10.1155598958333  0 8.86067708333333  0 7.5  C 0 6.13932291666666  0.335286458333333 4.88444010416667  1.005859375 3.7353515625  C 1.67643229166667 2.58626302083333  2.58626302083333 1.67643229166667  3.7353515625 1.005859375  C 4.88444010416667 0.335286458333332  6.13932291666667 0  7.5 0  C 8.86067708333333 0  10.1155598958333 0.335286458333332  11.2646484375 1.005859375  C 12.4137369791667 1.67643229166667  13.3235677083333 2.58626302083333  13.994140625 3.7353515625  Z " fill-rule="nonzero" fill="#ffffff" stroke="none" transform="matrix(1 0 0 1 9 143 )" />
  </g>
</svg>