<?xml version="1.0" encoding="utf-8"?>
<svg version="1.1" xmlns:xlink="http://www.w3.org/1999/xlink" width="77px" height="38px" xmlns="http://www.w3.org/2000/svg">
  <g transform="matrix(1 0 0 1 -326 -1346 )">
    <path d="M 341.209682947934 1346.5  C 341.209682947934 1346.5  337.701024628354 1347.3657728321  337.701024628354 1347.3657728321  C 337.701024628354 1347.3657728321  326.57122551419 1365  326.57122551419 1365  C 326.57122551419 1365  337.701024628354 1382.6342271679  337.701024628354 1382.6342271679  C 337.701024628354 1382.6342271679  341.209682947934 1383.5  341.209682947934 1383.5  C 341.209682947934 1383.5  402.5 1383.5  402.5 1383.5  C 402.5 1383.5  402.5 1346.5  402.5 1346.5  C 402.5 1346.5  341.209682947934 1346.5  341.209682947934 1346.5  Z " fill-rule="nonzero" fill="#ffffff" stroke="none" />
    <path d="M 341.209682947934 1346.5  C 341.209682947934 1346.5  337.701024628354 1347.3657728321  337.701024628354 1347.3657728321  C 337.701024628354 1347.3657728321  326.57122551419 1365  326.57122551419 1365  C 326.57122551419 1365  337.701024628354 1382.6342271679  337.701024628354 1382.6342271679  C 337.701024628354 1382.6342271679  341.209682947934 1383.5  341.209682947934 1383.5  C 341.209682947934 1383.5  402.5 1383.5  402.5 1383.5  C 402.5 1383.5  402.5 1346.5  402.5 1346.5  C 402.5 1346.5  341.209682947934 1346.5  341.209682947934 1346.5  Z " stroke-width="1" stroke="#797979" fill="none" />
  </g>
</svg>